<svg width="124" height="124" viewBox="0 0 124 124" fill="none" xmlns="http://www.w3.org/2000/svg">
<circle cx="62.0042" cy="62.0042" r="58.6221" stroke="url(#paint0_linear_1729_1153)" stroke-width="6.76409"/>
<path d="M62.5537 26.512C70.923 26.512 77.7322 33.3194 77.7324 41.6907C77.7324 45.0465 76.8315 47.5783 75.1611 49.6106C74.1517 50.8387 72.9004 51.833 71.5234 52.7102L96.2793 67.5647C100.352 70.0064 102.873 74.4641 102.873 79.2083C102.873 86.6959 96.7825 92.7844 89.2969 92.7844H35.8105C28.3252 92.7841 22.2354 86.6958 22.2354 79.2083C22.2355 74.4642 24.7561 70.0065 28.8281 67.5647H28.8291L60.2891 48.6887C60.3442 48.6556 60.3985 48.6279 60.4502 48.6038C60.4927 48.5778 60.5388 48.5491 60.5898 48.5237H60.5908L62.3164 47.6672L62.3193 47.6663L63.4307 47.1145C65.8634 45.8987 67.1978 45.1573 67.9844 44.427C68.375 44.0643 68.5787 43.7444 68.7051 43.3948C68.8419 43.016 68.9238 42.5002 68.9238 41.6907C68.9236 38.1798 66.0634 35.3206 62.5537 35.3206C59.0442 35.3208 56.1838 38.1799 56.1836 41.6907C56.1836 44.1224 54.211 46.095 51.7793 46.095C49.3478 46.0947 47.376 44.1223 47.376 41.6907C47.3762 33.3195 54.1846 26.5122 62.5537 26.512ZM35.8115 85.6868H89.2969V85.6858H35.8105C35.6992 85.6858 35.5885 85.6836 35.4785 85.678L35.8115 85.6868ZM33.3594 75.1174L33.0986 75.2864C31.8269 76.1702 31.0431 77.651 31.043 79.2083C31.043 81.8353 33.1847 83.9755 35.8105 83.9758H89.2969C91.9229 83.9758 94.0645 81.8355 94.0645 79.2083C94.0644 77.5471 93.1728 75.9728 91.748 75.1174L62.5547 57.5999L33.3594 75.1174ZM24.002 78.0686C23.9649 78.4456 23.9453 78.8259 23.9453 79.2083H23.9463C23.9463 78.8259 23.9651 78.4456 24.002 78.0686ZM101.137 78.4348L101.108 78.0862C101.107 78.0751 101.106 78.0641 101.104 78.053C101.117 78.1799 101.128 78.3072 101.137 78.4348ZM68.1367 52.675L95.3994 69.0325C95.5528 69.1244 95.7032 69.2203 95.8516 69.3186C95.8107 69.2915 95.7707 69.2632 95.7295 69.2366L95.3994 69.0315L68.1367 52.6741V52.675ZM29.3789 69.2366C29.3647 69.2457 29.3511 69.2557 29.3369 69.2649C29.459 69.1855 29.5826 69.1077 29.708 69.0325V69.0315C29.597 69.0981 29.4873 69.1666 29.3789 69.2366ZM63.0762 49.2004L61.3506 50.0559C61.3121 50.0752 61.2901 50.1111 61.2529 50.1321V50.1331C61.2904 50.112 61.3128 50.0752 61.3516 50.0559L63.0771 49.2004C63.1996 49.14 63.3197 49.0795 63.4385 49.0208C63.3195 49.0796 63.1989 49.1399 63.0762 49.2004ZM61.7295 33.6516C61.6683 33.6578 61.6076 33.6665 61.5469 33.6741C61.6118 33.666 61.6768 33.6572 61.7422 33.6506L61.7295 33.6516Z" fill="url(#paint1_linear_1729_1153)"/>
<defs>
<linearGradient id="paint0_linear_1729_1153" x1="-0.189269" y1="124.008" x2="142.388" y2="27.2138" gradientUnits="userSpaceOnUse">
<stop stop-color="#4E4E4E"/>
<stop offset="0.480769" stop-color="#949494"/>
<stop offset="1" stop-color="#CACACA"/>
</linearGradient>
<linearGradient id="paint1_linear_1729_1153" x1="22.1123" y1="92.7844" x2="102.62" y2="26.281" gradientUnits="userSpaceOnUse">
<stop stop-color="#4E4E4E"/>
<stop offset="0.480769" stop-color="#949494"/>
<stop offset="1" stop-color="#CACACA"/>
</linearGradient>
</defs>
</svg>
