<svg width="14" height="14" viewBox="0 0 14 14" fill="none" xmlns="http://www.w3.org/2000/svg">
<path d="M1.16669 1.16675H2.18169C2.81169 1.16675 3.30752 1.70925 3.25502 2.33341L2.77085 8.14341C2.68919 9.09424 3.44168 9.91091 4.39835 9.91091H10.6109C11.4509 9.91091 12.1859 9.22258 12.25 8.38842L12.565 4.01342C12.635 3.04508 11.9 2.25758 10.9259 2.25758H3.39502" stroke="#667085" stroke-miterlimit="10" stroke-linecap="round" stroke-linejoin="round"/>
<path d="M9.47917 12.8333C9.88187 12.8333 10.2083 12.5069 10.2083 12.1042C10.2083 11.7015 9.88187 11.375 9.47917 11.375C9.07646 11.375 8.75 11.7015 8.75 12.1042C8.75 12.5069 9.07646 12.8333 9.47917 12.8333Z" stroke="#667085" stroke-miterlimit="10" stroke-linecap="round" stroke-linejoin="round"/>
<path d="M4.81248 12.8333C5.21519 12.8333 5.54165 12.5069 5.54165 12.1042C5.54165 11.7015 5.21519 11.375 4.81248 11.375C4.40977 11.375 4.08331 11.7015 4.08331 12.1042C4.08331 12.5069 4.40977 12.8333 4.81248 12.8333Z" stroke="#667085" stroke-miterlimit="10" stroke-linecap="round" stroke-linejoin="round"/>
<path d="M5.25 4.66675H12.25" stroke="#667085" stroke-miterlimit="10" stroke-linecap="round" stroke-linejoin="round"/>
</svg>
