<svg width="14" height="14" viewBox="0 0 14 14" fill="none" xmlns="http://www.w3.org/2000/svg">
<path d="M12.25 3.48844C10.3075 3.29594 8.35333 3.19678 6.405 3.19678C5.25 3.19678 4.095 3.25511 2.94 3.37178L1.75 3.48844" stroke="#667085" stroke-linecap="round" stroke-linejoin="round"/>
<path d="M4.95831 2.89925L5.08665 2.13508C5.17998 1.58091 5.24998 1.16675 6.23581 1.16675H7.76415C8.74998 1.16675 8.82581 1.60425 8.91331 2.14091L9.04165 2.89925" stroke="#667085" stroke-linecap="round" stroke-linejoin="round"/>
<path d="M10.9958 5.33179L10.6167 11.206C10.5525 12.1218 10.5 12.8335 8.87248 12.8335H5.12748C3.49998 12.8335 3.44748 12.1218 3.38332 11.206L3.00415 5.33179" stroke="#667085" stroke-linecap="round" stroke-linejoin="round"/>
<path d="M6.02582 9.625H7.96832" stroke="#667085" stroke-linecap="round" stroke-linejoin="round"/>
<path d="M5.54169 7.29175H8.45835" stroke="#667085" stroke-linecap="round" stroke-linejoin="round"/>
</svg>
