<svg width="128" height="37" viewBox="0 0 128 37" fill="none" xmlns="http://www.w3.org/2000/svg">
<path d="M49.6679 27.503L42.6284 11.2631H46.5574L51.7633 23.8359L57.002 11.2631H60.8982L53.826 27.503H49.6679Z" fill="url(#paint0_linear_1694_1597)"/>
<path d="M85.2651 27.503C83.6717 27.503 82.4057 27.121 81.4671 26.357C80.5285 25.5712 80.0592 24.1851 80.0592 22.1988V14.2099H75.9665V11.2631H78.3894C79.5026 11.2631 80.1575 10.7174 80.3539 9.62604L80.845 7.00671H83.5298V11.2631H89.9472V14.2099H83.5298V22.1333C83.5298 22.9846 83.7154 23.5849 84.0864 23.9341C84.4793 24.2615 85.1451 24.4252 86.0837 24.4252H89.8817V27.503H85.2651Z" fill="url(#paint1_linear_1694_1597)"/>
<path d="M94.0271 27.503V24.4907H97.9888V15.3558C97.9888 14.6355 97.6396 14.2753 96.9411 14.2753H94.3545V11.2631H98.2508C99.1457 11.2631 99.8769 11.5251 100.444 12.0489C101.012 12.551 101.296 13.2604 101.296 14.1771V14.57H101.459C101.7 13.3477 102.212 12.4309 102.998 11.8197C103.806 11.1867 104.974 10.8702 106.502 10.8702H109.023V14.5373H105.487C104.199 14.5373 103.206 14.9848 102.507 15.8797C101.809 16.7746 101.459 17.8442 101.459 19.0884V24.4907H106.502V27.503H94.0271Z" fill="url(#paint2_linear_1694_1597)"/>
<path d="M114.019 34.7061L117.883 26.1605H116.933L110.614 11.2631H114.38L119.225 23.1483L124.366 11.2631H128L117.686 34.7061H114.019Z" fill="url(#paint3_linear_1694_1597)"/>
<path d="M62.8044 21.4458V18.499H74.0675V21.4458H62.8044Z" fill="url(#paint4_linear_1694_1597)"/>
<circle cx="18.0079" cy="18.0079" r="17.0256" stroke="url(#paint5_linear_1694_1597)" stroke-width="1.9645"/>
<path d="M18.168 7.69983C20.5985 7.69992 22.576 9.67693 22.5762 12.108C22.5762 13.0826 22.3142 13.8186 21.8291 14.4088C21.5361 14.7652 21.173 15.0536 20.7734 15.3082L27.9629 19.6227C29.1455 20.3318 29.8779 21.6267 29.8779 23.0045C29.8779 25.1791 28.1085 26.9469 25.9346 26.9469H10.4014C8.22736 26.9469 6.45806 25.1791 6.45801 23.0045C6.45804 21.6267 7.19035 20.3318 8.37305 19.6227L17.5098 14.1412L17.5674 14.1119C17.5771 14.1063 17.5866 14.0989 17.5977 14.0934V14.0924L18.0986 13.8444L18.0996 13.8434L18.7061 13.5406C19.2365 13.2693 19.5493 13.0848 19.7451 12.903C19.8585 12.7977 19.9174 12.7046 19.9541 12.6031C19.9938 12.4932 20.0176 12.3431 20.0176 12.108C20.0174 11.0885 19.1871 10.2585 18.168 10.2584C17.1487 10.2584 16.3176 11.0885 16.3174 12.108C16.3173 12.8141 15.7451 13.3871 15.0391 13.3873C14.3328 13.3873 13.7598 12.8142 13.7598 12.108C13.76 9.67687 15.7374 7.69983 18.168 7.69983ZM25.9346 26.4508L26.1123 26.4459C26.1205 26.4455 26.1286 26.4435 26.1367 26.443C26.0698 26.4475 26.0025 26.4508 25.9346 26.4508ZM9.68848 21.817V21.816C9.27476 22.0645 9.01663 22.5221 9.0166 23.0045C9.01666 23.7675 9.63872 24.3893 10.4014 24.3893H25.9346C26.6972 24.3892 27.3193 23.7675 27.3193 23.0045C27.3193 22.5224 27.0608 22.0655 26.6475 21.817L18.168 16.7291L9.68848 21.817ZM27.7881 23.3121C27.7944 23.2739 27.8027 23.2358 27.8066 23.1969L27.8076 23.1842C27.8035 23.2274 27.7951 23.2698 27.7881 23.3121ZM8.5293 23.1969C8.52963 23.2002 8.5309 23.2034 8.53125 23.2067C8.53044 23.1992 8.52904 23.1917 8.52832 23.1842L8.5293 23.1969ZM15.1182 12.8864C15.0921 12.889 15.0658 12.8902 15.0391 12.8903C15.0929 12.8902 15.1455 12.885 15.1963 12.8746L15.1182 12.8864ZM15.3789 12.8092C15.3445 12.827 15.3092 12.8434 15.2715 12.8551L15.3438 12.8287C15.3562 12.8235 15.367 12.8153 15.3789 12.8092ZM15.4141 12.7897C15.4534 12.7662 15.4918 12.7413 15.5273 12.7125C15.4918 12.7413 15.4536 12.7665 15.4141 12.7897ZM15.8164 12.1881C15.8138 12.2142 15.8108 12.24 15.8057 12.2653C15.816 12.2145 15.8213 12.1619 15.8213 12.108L15.8164 12.1881Z" fill="url(#paint6_linear_1694_1597)"/>
<defs>
<linearGradient id="paint0_linear_1694_1597" x1="42.4981" y1="34.7061" x2="69.1606" y2="-21.0824" gradientUnits="userSpaceOnUse">
<stop stop-color="#4E4E4E"/>
<stop offset="0.480769" stop-color="#949494"/>
<stop offset="1" stop-color="#CACACA"/>
</linearGradient>
<linearGradient id="paint1_linear_1694_1597" x1="42.4981" y1="34.7061" x2="69.1606" y2="-21.0824" gradientUnits="userSpaceOnUse">
<stop stop-color="#4E4E4E"/>
<stop offset="0.480769" stop-color="#949494"/>
<stop offset="1" stop-color="#CACACA"/>
</linearGradient>
<linearGradient id="paint2_linear_1694_1597" x1="42.4981" y1="34.7061" x2="69.1606" y2="-21.0824" gradientUnits="userSpaceOnUse">
<stop stop-color="#4E4E4E"/>
<stop offset="0.480769" stop-color="#949494"/>
<stop offset="1" stop-color="#CACACA"/>
</linearGradient>
<linearGradient id="paint3_linear_1694_1597" x1="42.4981" y1="34.7061" x2="69.1606" y2="-21.0824" gradientUnits="userSpaceOnUse">
<stop stop-color="#4E4E4E"/>
<stop offset="0.480769" stop-color="#949494"/>
<stop offset="1" stop-color="#CACACA"/>
</linearGradient>
<linearGradient id="paint4_linear_1694_1597" x1="42.4981" y1="34.7061" x2="69.1606" y2="-21.0824" gradientUnits="userSpaceOnUse">
<stop stop-color="#4E4E4E"/>
<stop offset="0.480769" stop-color="#949494"/>
<stop offset="1" stop-color="#CACACA"/>
</linearGradient>
<linearGradient id="paint5_linear_1694_1597" x1="-0.0549694" y1="36.0158" x2="41.3537" y2="7.90372" gradientUnits="userSpaceOnUse">
<stop stop-color="#4E4E4E"/>
<stop offset="0.480769" stop-color="#949494"/>
<stop offset="1" stop-color="#CACACA"/>
</linearGradient>
<linearGradient id="paint6_linear_1694_1597" x1="6.42226" y1="26.9469" x2="29.8038" y2="7.63193" gradientUnits="userSpaceOnUse">
<stop stop-color="#4E4E4E"/>
<stop offset="0.480769" stop-color="#949494"/>
<stop offset="1" stop-color="#CACACA"/>
</linearGradient>
</defs>
</svg>
