<svg width="14" height="14" viewBox="0 0 14 14" fill="none" xmlns="http://www.w3.org/2000/svg">
<path d="M7.30919 11.9117H3.62252C1.77919 11.9117 1.16669 10.6867 1.16669 9.45588V4.54421C1.16669 2.70088 1.77919 2.08838 3.62252 2.08838H7.30919C9.15252 2.08838 9.76502 2.70088 9.76502 4.54421V9.45588C9.76502 11.2992 9.14669 11.9117 7.30919 11.9117Z" stroke="#667085" stroke-linecap="round" stroke-linejoin="round"/>
<path d="M11.3867 9.97508L9.76501 8.83758V5.15674L11.3867 4.01924C12.18 3.46508 12.8333 3.80341 12.8333 4.77758V9.22258C12.8333 10.1967 12.18 10.5351 11.3867 9.97508Z" stroke="#667085" stroke-linecap="round" stroke-linejoin="round"/>
<path d="M6.70831 6.41675C7.19156 6.41675 7.58331 6.025 7.58331 5.54175C7.58331 5.0585 7.19156 4.66675 6.70831 4.66675C6.22506 4.66675 5.83331 5.0585 5.83331 5.54175C5.83331 6.025 6.22506 6.41675 6.70831 6.41675Z" stroke="#667085" stroke-linecap="round" stroke-linejoin="round"/>
</svg>
